# xmcd CD database file generated by OrangeCD 6.3
#
# Track frame offsets:
#	172
#	19972
#	39670
#	63575
#	76790
#	95000
#	109255
#	124450
#	140777
#	162620
#
# Disc length: 2454 seconds
#
# Revision: 1
# Processed by: cddbd v1.5.2PL0 Copyright (c) Steve Scherf et al.
# Submitted via: OrangeCD 6.3
#
DISCID=9409940a
DTITLE=George Thorogood - Move It On Over
DYEAR=1978
DGENRE=Rock
TTITLE0=Move It On Over
TTITLE1=Who Do You Love
TTITLE2=The Sky Is Crying
TTITLE3=Cocaine Blues
TTITLE4=It Wasn't Me
TTITLE5=That Same Thing
TTITLE6=So Much Trouble
TTITLE7=I'm Just Your Good Thing
TTITLE8=Baby Please Set A Date
TTITLE9=New Hawaiian Boogie
EXTD=
EXTT0=
EXTT1=
EXTT2=
EXTT3=
EXTT4=
EXTT5=
EXTT6=
EXTT7=
EXTT8=
EXTT9=
PLAYORDER=
